<?xml version="1.0" encoding="UTF-8"?>
<!DOCTYPE svg PUBLIC "-//W3C//DTD SVG 1.1//EN" "http://www.w3.org/Graphics/SVG/1.1/DTD/svg11.dtd">
<svg xmlns="http://www.w3.org/2000/svg" version="1.1" width="2676px" height="957px" style="shape-rendering:geometricPrecision; text-rendering:geometricPrecision; image-rendering:optimizeQuality; fill-rule:evenodd; clip-rule:evenodd" xmlns:xlink="http://www.w3.org/1999/xlink">
<g><path style="opacity:0.983" fill="#172c51" d="M 2.5,1.5 C 869.5,1.5 1736.5,1.5 2603.5,1.5C 2603.83,272.07 2603.5,542.57 2602.5,813C 1735.83,813.5 869.167,813.667 2.5,813.5C 2.5,542.833 2.5,272.167 2.5,1.5 Z M 17.5,16.5 C 874.5,16.5 1731.5,16.5 2588.5,16.5C 2588.5,277.167 2588.5,537.833 2588.5,798.5C 1731.5,798.5 874.5,798.5 17.5,798.5C 17.5,537.833 17.5,277.167 17.5,16.5 Z"/></g>
<g><path style="opacity:0.995" fill="#3c3b6e" d="M 1128.5,41.5 C 1605.83,41.5 2083.17,41.5 2560.5,41.5C 2560.83,164.737 2560.5,287.903 2559.5,411C 2082.5,411.5 1605.5,411.667 1128.5,411.5C 1128.5,288.167 1128.5,164.833 1128.5,41.5 Z"/></g>
<g><path style="opacity:0.998" fill="#3c3b6e" d="M 598.5,43.5 C 598.5,62.1667 598.5,80.8333 598.5,99.5C 598.5,118.5 598.5,137.5 598.5,156.5C 598.5,174.833 598.5,193.167 598.5,211.5C 598.5,230.5 598.5,249.5 598.5,268.5C 598.5,286.833 598.5,305.167 598.5,323.5C 598.5,342.5 598.5,361.5 598.5,380.5C 598.5,398.833 598.5,417.167 598.5,435.5C 413.5,435.5 228.5,435.5 43.5,435.5C 43.5,304.833 43.5,174.167 43.5,43.5C 228.5,43.5 413.5,43.5 598.5,43.5 Z"/></g>
<g><path style="opacity:0.991" fill="#b12233" d="M 598.5,43.5 C 770.833,43.5 943.167,43.5 1115.5,43.5C 1115.5,62.1667 1115.5,80.8333 1115.5,99.5C 943.167,99.5 770.833,99.5 598.5,99.5C 598.5,80.8333 598.5,62.1667 598.5,43.5 Z"/></g>
<g><path style="opacity:1" fill="#f7f6f9" d="M 70.5,77.5 C 75.5,76.8333 80.5,76.1667 85.5,75.5C 86.6983,70.7619 88.1983,66.0952 90,61.5C 91.8382,66.3501 93.6715,71.1834 95.5,76C 100.5,76.3333 105.5,76.6667 110.5,77C 106.4,79.4674 102.566,82.3007 99,85.5C 100,90.5 101,95.5 102,100.5C 97.9896,97.8182 93.9896,95.1515 90,92.5C 86.5694,94.261 83.4028,96.4276 80.5,99C 79.2411,99.9819 77.9078,100.315 76.5,100C 78.26,95.5553 79.9267,91.0553 81.5,86.5C 77.9864,83.2526 74.3197,80.2526 70.5,77.5 Z"/></g>
<g><path style="opacity:1" fill="#f7f7f9" d="M 532.5,77.5 C 537.5,76.8333 542.5,76.1667 547.5,75.5C 548.493,70.6866 549.993,66.0199 552,61.5C 553.838,66.3501 555.672,71.1834 557.5,76C 562.5,76.3333 567.5,76.6667 572.5,77C 568.4,79.4674 564.566,82.3007 561,85.5C 562,90.5 563,95.5 564,100.5C 560.155,97.5793 556.155,94.9126 552,92.5C 547.845,94.9126 543.845,97.5793 540,100.5C 540.21,95.6832 541.376,91.0165 543.5,86.5C 539.986,83.2526 536.32,80.2526 532.5,77.5 Z"/></g>
<g><path style="opacity:1" fill="#f7f7f9" d="M 279.5,75.5 C 284.5,76.1667 289.5,76.8333 294.5,77.5C 290.876,79.9507 287.376,82.6174 284,85.5C 284.624,90.2227 285.79,94.8894 287.5,99.5C 287.167,99.8333 286.833,100.167 286.5,100.5C 282.794,97.6237 278.961,94.957 275,92.5C 270.577,95.4543 266.077,97.9543 261.5,100C 263.162,95.6835 264.829,91.3501 266.5,87C 263.234,83.3674 259.567,80.2007 255.5,77.5C 260.749,77.1413 265.749,76.1413 270.5,74.5C 271.309,69.9062 272.809,65.5729 275,61.5C 276.607,66.1536 278.107,70.8203 279.5,75.5 Z"/></g>
<g><path style="opacity:1" fill="#f7f6f9" d="M 372.5,75.5 C 377.5,76.1667 382.5,76.8333 387.5,77.5C 383.134,80.016 379.134,83.016 375.5,86.5C 377.56,91.3007 378.894,95.9673 379.5,100.5C 375.402,97.7023 371.235,95.0357 367,92.5C 363.01,95.1515 359.01,97.8182 355,100.5C 355.521,95.9194 356.688,91.4194 358.5,87C 355.318,83.3218 351.652,80.1551 347.5,77.5C 352.5,76.8333 357.5,76.1667 362.5,75.5C 363.302,70.9263 364.802,66.5929 367,62.5C 368.947,66.8591 370.781,71.1924 372.5,75.5 Z"/></g>
<g><path style="opacity:1" fill="#f7f6f9" d="M 187.5,75.5 C 192.5,76.1667 197.5,76.8333 202.5,77.5C 198.134,80.016 194.134,83.016 190.5,86.5C 192.54,91.4438 194.04,96.4438 195,101.5C 191.207,97.7051 186.874,94.7051 182,92.5C 178.039,94.957 174.206,97.6237 170.5,100.5C 170.167,100 169.833,99.5 169.5,99C 171.937,94.8094 173.104,90.3094 173,85.5C 169.624,82.6174 166.124,79.9507 162.5,77.5C 167.5,76.8333 172.5,76.1667 177.5,75.5C 178.893,70.8203 180.393,66.1536 182,61.5C 184.126,66.0431 185.959,70.7098 187.5,75.5 Z"/></g>
<g><path style="opacity:1" fill="#f6f6f8" d="M 464.5,75.5 C 469.5,76.1667 474.5,76.8333 479.5,77.5C 475.876,79.9507 472.376,82.6174 469,85.5C 469.216,90.3324 470.383,94.9991 472.5,99.5C 472.167,99.8333 471.833,100.167 471.5,100.5C 467.794,97.6237 463.961,94.957 460,92.5C 455.126,94.7051 450.793,97.7051 447,101.5C 447.667,96.1584 449.167,90.9918 451.5,86C 447.343,83.3359 443.343,80.5025 439.5,77.5C 444.5,76.8333 449.5,76.1667 454.5,75.5C 456.555,71.0023 458.222,66.3356 459.5,61.5C 461.57,66.0447 463.237,70.7114 464.5,75.5 Z"/></g>
<g><path style="opacity:1" fill="#727095" d="M 85.5,75.5 C 80.5,76.1667 75.5,76.8333 70.5,77.5C 69.7109,77.2172 69.0442,76.7172 68.5,76C 74.1569,75.5006 79.8236,75.3339 85.5,75.5 Z"/></g>
<g><path style="opacity:1" fill="#6f6e94" d="M 177.5,75.5 C 172.5,76.1667 167.5,76.8333 162.5,77.5C 161.957,77.44 161.624,77.1067 161.5,76.5C 166.792,75.5052 172.125,75.1718 177.5,75.5 Z"/></g>
<g><path style="opacity:1" fill="#6c6c92" d="M 187.5,75.5 C 192.875,75.1718 198.208,75.5052 203.5,76.5C 203.376,77.1067 203.043,77.44 202.5,77.5C 197.5,76.8333 192.5,76.1667 187.5,75.5 Z"/></g>
<g><path style="opacity:1" fill="#747297" d="M 270.5,74.5 C 265.749,76.1413 260.749,77.1413 255.5,77.5C 254.711,77.2172 254.044,76.7172 253.5,76C 259.248,75.788 264.915,75.288 270.5,74.5 Z"/></g>
<g><path style="opacity:1" fill="#727196" d="M 279.5,75.5 C 284.875,75.1718 290.208,75.5052 295.5,76.5C 295.376,77.1067 295.043,77.44 294.5,77.5C 289.5,76.8333 284.5,76.1667 279.5,75.5 Z"/></g>
<g><path style="opacity:1" fill="#727196" d="M 362.5,75.5 C 357.5,76.1667 352.5,76.8333 347.5,77.5C 346.957,77.44 346.624,77.1067 346.5,76.5C 351.792,75.5052 357.125,75.1718 362.5,75.5 Z"/></g>
<g><path style="opacity:1" fill="#6c6c92" d="M 372.5,75.5 C 377.875,75.1718 383.208,75.5052 388.5,76.5C 388.376,77.1067 388.043,77.44 387.5,77.5C 382.5,76.8333 377.5,76.1667 372.5,75.5 Z"/></g>
<g><path style="opacity:1" fill="#6c6c92" d="M 454.5,75.5 C 449.5,76.1667 444.5,76.8333 439.5,77.5C 438.957,77.44 438.624,77.1067 438.5,76.5C 443.792,75.5052 449.125,75.1718 454.5,75.5 Z"/></g>
<g><path style="opacity:1" fill="#727196" d="M 464.5,75.5 C 469.875,75.1718 475.208,75.5052 480.5,76.5C 480.376,77.1067 480.043,77.44 479.5,77.5C 474.5,76.8333 469.5,76.1667 464.5,75.5 Z"/></g>
<g><path style="opacity:1" fill="#727095" d="M 547.5,75.5 C 542.5,76.1667 537.5,76.8333 532.5,77.5C 531.711,77.2172 531.044,76.7172 530.5,76C 536.157,75.5006 541.824,75.3339 547.5,75.5 Z"/></g>
<g><path style="opacity:1" fill="#fdfbfb" d="M 598.5,99.5 C 770.833,99.5 943.167,99.5 1115.5,99.5C 1115.5,118.5 1115.5,137.5 1115.5,156.5C 943.167,156.5 770.833,156.5 598.5,156.5C 598.5,137.5 598.5,118.5 598.5,99.5 Z"/></g>
<g><path style="opacity:1" fill="#f7f7f9" d="M 135.5,101.5 C 137.958,105.673 139.958,110.173 141.5,115C 146.5,115.333 151.5,115.667 156.5,116C 152.62,119.388 148.62,122.554 144.5,125.5C 146.617,130.001 147.784,134.668 148,139.5C 143.99,136.818 139.99,134.152 136,131.5C 131.704,134.292 127.538,137.292 123.5,140.5C 124.202,135.837 125.536,131.003 127.5,126C 123.967,122.216 119.967,118.882 115.5,116C 120.864,115.829 126.198,115.329 131.5,114.5C 133.249,110.255 134.583,105.922 135.5,101.5 Z"/></g>
<g><path style="opacity:1" fill="#f7f7f9" d="M 320.5,101.5 C 323.322,105.624 324.989,110.291 325.5,115.5C 330.844,115.334 336.177,115.501 341.5,116C 337.756,118.955 333.922,121.789 330,124.5C 330.521,129.081 331.688,133.581 333.5,138C 333.167,138.5 332.833,139 332.5,139.5C 328.794,136.624 324.961,133.957 321,131.5C 317.232,133.597 313.732,136.097 310.5,139C 309.668,139.688 309.002,139.521 308.5,138.5C 310.239,134.283 311.573,129.95 312.5,125.5C 308.721,122.104 304.721,118.937 300.5,116C 305.5,115.667 310.5,115.333 315.5,115C 317.269,110.527 318.935,106.027 320.5,101.5 Z"/></g>
<g><path style="opacity:1" fill="#f7f7f9" d="M 505.5,100.5 C 507.739,105.216 509.405,110.216 510.5,115.5C 515.844,115.334 521.177,115.501 526.5,116C 522.756,118.955 518.922,121.789 515,124.5C 515.216,129.332 516.383,133.999 518.5,138.5C 518.167,138.833 517.833,139.167 517.5,139.5C 513.794,136.624 509.961,133.957 506,131.5C 501.845,133.913 497.845,136.579 494,139.5C 494.216,134.668 495.383,130.001 497.5,125.5C 493.307,122.14 488.974,118.973 484.5,116C 490.157,115.501 495.824,115.334 501.5,115.5C 502.077,110.277 503.41,105.277 505.5,100.5 Z"/></g>
<g><path style="opacity:1" fill="#f6f6f8" d="M 228.5,101.5 C 230.335,105.656 232.001,109.989 233.5,114.5C 238.802,115.329 244.136,115.829 249.5,116C 245.4,118.467 241.566,121.301 238,124.5C 238.796,129.882 239.796,135.216 241,140.5C 237.098,137.132 232.931,134.132 228.5,131.5C 224.069,134.132 219.902,137.132 216,140.5C 216.478,135.397 217.978,130.563 220.5,126C 216.471,122.309 212.138,118.975 207.5,116C 212.864,115.829 218.198,115.329 223.5,114.5C 224.979,110.06 226.645,105.726 228.5,101.5 Z"/></g>
<g><path style="opacity:1" fill="#f6f6f8" d="M 413.5,101.5 C 415.335,105.656 417.001,109.989 418.5,114.5C 423.802,115.329 429.136,115.829 434.5,116C 430.026,118.973 425.693,122.14 421.5,125.5C 423.54,130.444 425.04,135.444 426,140.5C 422.098,137.132 417.931,134.132 413.5,131.5C 408.915,133.919 404.748,136.919 401,140.5C 402.212,135.2 403.212,129.867 404,124.5C 400.434,121.301 396.6,118.467 392.5,116C 397.823,115.501 403.156,115.334 408.5,115.5C 409.387,110.503 411.053,105.836 413.5,101.5 Z"/></g>
<g><path style="opacity:1" fill="#b8b7ca" d="M 2483.5,134.5 C 2467.83,134.5 2452.17,134.5 2436.5,134.5C 2436.5,147.833 2436.5,161.167 2436.5,174.5C 2435.5,161.01 2435.17,147.344 2435.5,133.5C 2451.68,133.17 2467.68,133.504 2483.5,134.5 Z"/></g>
<g><path style="opacity:1" fill="#fbfbfb" d="M 1176.5,133.5 C 1194.83,133.5 1213.17,133.5 1231.5,133.5C 1246.69,181.241 1262.19,228.908 1278,276.5C 1293.33,229.167 1308.67,181.833 1324,134.5C 1342.09,133.508 1360.26,133.174 1378.5,133.5C 1353.13,200.579 1327.46,267.579 1301.5,334.5C 1284.85,335.499 1268.18,335.833 1251.5,335.5C 1226.5,268.167 1201.5,200.833 1176.5,133.5 Z"/></g>
<g><path style="opacity:1" fill="#fbfbfb" d="M 1524.5,212.5 C 1524.5,225.5 1524.5,238.5 1524.5,251.5C 1496.66,251.169 1468.99,251.502 1441.5,252.5C 1441.5,266.167 1441.5,279.833 1441.5,293.5C 1472.5,293.5 1503.5,293.5 1534.5,293.5C 1534.5,307.5 1534.5,321.5 1534.5,335.5C 1487.5,335.5 1440.5,335.5 1393.5,335.5C 1393.33,268.499 1393.5,201.499 1394,134.5C 1439.09,133.503 1484.26,133.17 1529.5,133.5C 1529.5,147.5 1529.5,161.5 1529.5,175.5C 1500.17,175.5 1470.83,175.5 1441.5,175.5C 1441.5,187.833 1441.5,200.167 1441.5,212.5C 1469.17,212.5 1496.83,212.5 1524.5,212.5 Z"/></g>
<g><path style="opacity:1" fill="#fcfcfc" d="M 1547.5,133.5 C 1601.83,133.5 1656.17,133.5 1710.5,133.5C 1710.5,147.5 1710.5,161.5 1710.5,175.5C 1691.5,175.5 1672.5,175.5 1653.5,175.5C 1653.5,228.833 1653.5,282.167 1653.5,335.5C 1637.17,335.5 1620.83,335.5 1604.5,335.5C 1604.5,282.167 1604.5,228.833 1604.5,175.5C 1585.5,175.5 1566.5,175.5 1547.5,175.5C 1547.5,161.5 1547.5,147.5 1547.5,133.5 Z"/></g>
<g><path style="opacity:1" fill="#fbfbfb" d="M 1862.5,212.5 C 1862.5,225.5 1862.5,238.5 1862.5,251.5C 1834.66,251.169 1806.99,251.502 1779.5,252.5C 1779.5,266.167 1779.5,279.833 1779.5,293.5C 1810.5,293.5 1841.5,293.5 1872.5,293.5C 1872.5,307.5 1872.5,321.5 1872.5,335.5C 1825.5,335.5 1778.5,335.5 1731.5,335.5C 1731.33,268.499 1731.5,201.499 1732,134.5C 1777.09,133.503 1822.26,133.17 1867.5,133.5C 1867.5,147.5 1867.5,161.5 1867.5,175.5C 1838.17,175.5 1808.83,175.5 1779.5,175.5C 1779.5,187.833 1779.5,200.167 1779.5,212.5C 1807.17,212.5 1834.83,212.5 1862.5,212.5 Z"/></g>
<g><path style="opacity:1" fill="#fbfbfb" d="M 1904.5,133.5 C 1931.84,133.333 1959.17,133.5 1986.5,134C 2005,134.171 2022,139.171 2037.5,149C 2058.07,167.994 2063.57,190.827 2054,217.5C 2046.57,233.436 2034.4,243.77 2017.5,248.5C 2020.36,254.564 2023.53,260.564 2027,266.5C 2040.6,288.705 2054.43,310.705 2068.5,332.5C 2096.81,266.738 2124.65,200.738 2152,134.5C 2168.1,133.176 2184.27,133.176 2200.5,134.5C 2228.76,201.294 2256.43,268.294 2283.5,335.5C 2265.5,335.667 2247.5,335.5 2229.5,335C 2223.81,322.424 2218.81,309.59 2214.5,296.5C 2188.17,296.5 2161.83,296.5 2135.5,296.5C 2131.33,309.506 2126.66,322.339 2121.5,335C 2084.83,335.667 2048.17,335.667 2011.5,335C 1997.29,308.753 1982.96,282.587 1968.5,256.5C 1963.21,255.505 1957.87,255.172 1952.5,255.5C 1952.5,282.167 1952.5,308.833 1952.5,335.5C 1936.17,335.5 1919.83,335.5 1903.5,335.5C 1903.17,268.096 1903.5,200.762 1904.5,133.5 Z"/></g>
<g><path style="opacity:1" fill="#fbfbfb" d="M 2436.5,174.5 C 2436.5,161.167 2436.5,147.833 2436.5,134.5C 2452.17,134.5 2467.83,134.5 2483.5,134.5C 2483.5,201.5 2483.5,268.5 2483.5,335.5C 2464.83,335.667 2446.16,335.5 2427.5,335C 2400.67,291.5 2373.83,248 2347,204.5C 2347.42,248.154 2347.59,291.82 2347.5,335.5C 2331.5,335.5 2315.5,335.5 2299.5,335.5C 2299.33,268.499 2299.5,201.499 2300,134.5C 2318.77,133.175 2337.6,133.175 2356.5,134.5C 2383,177.5 2409.5,220.5 2436,263.5C 2436.5,233.835 2436.67,204.169 2436.5,174.5 Z"/></g>
<g><path style="opacity:1" fill="#f6f6f9" d="M 89.5,139.5 C 91.7387,144.216 93.4054,149.216 94.5,154.5C 100.176,154.334 105.843,154.501 111.5,155C 107.333,157.833 103.167,160.667 99,163.5C 99.6668,168.842 101.167,174.008 103.5,179C 102.833,179.667 102.167,179.667 101.5,179C 97.9165,175.584 93.9165,172.751 89.5,170.5C 85.4537,174.098 81.1203,176.931 76.5,179C 78.655,174.704 80.3216,170.204 81.5,165.5C 77.65,161.492 73.3167,157.992 68.5,155C 73.8333,154.667 79.1667,154.333 84.5,154C 86.4649,149.272 88.1316,144.439 89.5,139.5 Z"/></g>
<g><path style="opacity:1" fill="#f7f7f9" d="M 274.5,139.5 C 276.739,144.216 278.405,149.216 279.5,154.5C 284.844,154.334 290.177,154.501 295.5,155C 291.756,157.955 287.922,160.789 284,163.5C 284.216,168.332 285.383,172.999 287.5,177.5C 287.167,177.833 286.833,178.167 286.5,178.5C 282.5,175.833 278.5,173.167 274.5,170.5C 270.833,173.167 267.167,175.833 263.5,178.5C 263.193,173.705 264.193,169.038 266.5,164.5C 262.307,161.14 257.974,157.973 253.5,155C 259.157,154.501 264.824,154.334 270.5,154.5C 271.841,149.48 273.175,144.48 274.5,139.5 Z"/></g>
<g><path style="opacity:1" fill="#f6f6f9" d="M 366.5,139.5 C 368.771,144.129 370.771,148.962 372.5,154C 377.833,154.333 383.167,154.667 388.5,155C 384.026,157.973 379.693,161.14 375.5,164.5C 376.731,168.692 378.064,172.859 379.5,177C 379.167,177.5 378.833,178 378.5,178.5C 374.833,175.833 371.167,173.167 367.5,170.5C 362.992,173.253 358.659,176.253 354.5,179.5C 355.202,174.837 356.536,170.003 358.5,165C 354.598,161.692 350.598,158.359 346.5,155C 351.823,154.501 357.156,154.334 362.5,154.5C 363.84,149.483 365.173,144.483 366.5,139.5 Z"/></g>
<g><path style="opacity:1" fill="#f6f6f8" d="M 551.5,140.5 C 553.921,144.755 555.588,149.421 556.5,154.5C 562.176,154.334 567.843,154.501 573.5,155C 568.862,157.975 564.529,161.309 560.5,165C 561.975,169.759 563.641,174.426 565.5,179C 564.833,179.667 564.167,179.667 563.5,179C 559.916,175.584 555.916,172.751 551.5,170.5C 547.454,174.098 543.12,176.931 538.5,179C 540.262,174.55 541.928,170.05 543.5,165.5C 539.65,161.492 535.317,157.992 530.5,155C 535.833,154.667 541.167,154.333 546.5,154C 548.269,149.527 549.935,145.027 551.5,140.5 Z"/></g>
<g><path style="opacity:1" fill="#f6f5f8" d="M 181.5,139.5 C 182.586,139.62 183.253,140.287 183.5,141.5C 184.607,145.766 185.94,149.933 187.5,154C 192.833,154.333 198.167,154.667 203.5,155C 199.026,157.973 194.693,161.14 190.5,164.5C 192.54,169.444 194.04,174.444 195,179.5C 190.745,176.623 186.578,173.623 182.5,170.5C 178.069,173.132 173.902,176.132 170,179.5C 171.204,174.216 172.204,168.882 173,163.5C 169.078,160.789 165.244,157.955 161.5,155C 166.833,154.667 172.167,154.333 177.5,154C 178.93,149.209 180.263,144.376 181.5,139.5 Z"/></g>
<g><path style="opacity:1" fill="#f6f6f8" d="M 458.5,140.5 C 459.497,140.47 460.164,140.97 460.5,142C 461.735,145.871 463.068,149.704 464.5,153.5C 469.802,154.329 475.136,154.829 480.5,155C 476.756,157.955 472.922,160.789 469,163.5C 469.801,168.893 470.801,174.226 472,179.5C 468.098,176.132 463.931,173.132 459.5,170.5C 455.805,173.362 451.971,176.028 448,178.5C 449.287,173.618 449.954,168.618 450,163.5C 446.434,160.301 442.6,157.467 438.5,155C 443.864,154.829 449.198,154.329 454.5,153.5C 456.242,149.275 457.576,144.941 458.5,140.5 Z"/></g>
<g><path style="opacity:1" fill="#b12233" d="M 598.5,156.5 C 770.833,156.5 943.167,156.5 1115.5,156.5C 1115.5,174.833 1115.5,193.167 1115.5,211.5C 943.167,211.5 770.833,211.5 598.5,211.5C 598.5,193.167 598.5,174.833 598.5,156.5 Z"/></g>
<g><path style="opacity:1" fill="#3e3d6f" d="M 1951.5,173.5 C 1965.94,172.899 1980.27,173.732 1994.5,176C 2009.71,182.624 2013.55,193.457 2006,208.5C 2000.2,214.663 1993.04,218.163 1984.5,219C 1973.51,219.5 1962.51,219.667 1951.5,219.5C 1951.5,204.167 1951.5,188.833 1951.5,173.5 Z"/></g>
<g><path style="opacity:1" fill="#f4f4f7" d="M 320.5,179.5 C 322.935,183.799 324.602,188.466 325.5,193.5C 330.844,193.334 336.177,193.501 341.5,194C 337.48,197.357 333.48,200.691 329.5,204C 330.936,208.141 332.269,212.308 333.5,216.5C 332.21,217.408 330.877,217.241 329.5,216C 326.667,213.833 323.833,211.667 321,209.5C 316.65,212.906 312.15,215.739 307.5,218C 309.359,213.426 311.025,208.759 312.5,204C 308.663,200.668 304.663,197.501 300.5,194.5C 305.833,193.833 311.167,193.167 316.5,192.5C 317.438,188.022 318.771,183.689 320.5,179.5 Z"/></g>
<g><path style="opacity:1" fill="#f4f4f7" d="M 135.5,178.5 C 137.771,183.129 139.771,187.962 141.5,193C 146.833,193.333 152.167,193.667 157.5,194C 152.862,196.975 148.529,200.309 144.5,204C 145.975,208.759 147.641,213.426 149.5,218C 144.85,215.739 140.35,212.906 136,209.5C 131.821,212.257 127.821,215.257 124,218.5C 125.108,213.802 126.275,208.969 127.5,204C 123.532,200.675 119.532,197.342 115.5,194C 120.823,193.501 126.156,193.334 131.5,193.5C 132.833,188.5 134.167,183.5 135.5,178.5 Z"/></g>
<g><path style="opacity:1" fill="#f5f4f7" d="M 227.5,179.5 C 228.497,179.47 229.164,179.97 229.5,181C 230.735,184.871 232.068,188.704 233.5,192.5C 238.802,193.329 244.136,193.829 249.5,194C 245.948,197.219 242.115,200.052 238,202.5C 238.39,207.986 239.39,213.319 241,218.5C 236.745,215.623 232.578,212.623 228.5,209.5C 224.833,212.167 221.167,214.833 217.5,217.5C 217.167,216.833 216.833,216.167 216.5,215.5C 217.93,211.71 219.264,207.876 220.5,204C 216.378,200.434 212.045,197.1 207.5,194C 212.864,193.829 218.198,193.329 223.5,192.5C 225.242,188.275 226.576,183.941 227.5,179.5 Z"/></g>
<g><path style="opacity:1" fill="#f4f4f7" d="M 412.5,178.5 C 414.743,183.017 416.743,187.85 418.5,193C 423.833,193.333 429.167,193.667 434.5,194C 430.167,197.167 425.833,200.333 421.5,203.5C 423.073,208.055 424.74,212.555 426.5,217C 425.5,217.667 424.5,217.667 423.5,217C 420.308,214.308 416.975,211.808 413.5,209.5C 409.422,212.623 405.255,215.623 401,218.5C 402.204,213.216 403.204,207.882 404,202.5C 399.885,200.052 396.052,197.219 392.5,194C 397.833,193.667 403.167,193.333 408.5,193C 410.749,188.42 412.082,183.586 412.5,178.5 Z"/></g>
<g><path style="opacity:1" fill="#f4f4f7" d="M 505.5,178.5 C 507.534,182.927 509.2,187.594 510.5,192.5C 515.802,193.329 521.136,193.829 526.5,194C 522.231,197.284 518.231,200.784 514.5,204.5C 515.634,208.568 516.967,212.568 518.5,216.5C 518.167,216.833 517.833,217.167 517.5,217.5C 513.253,215.418 509.419,212.751 506,209.5C 502.029,211.972 498.195,214.638 494.5,217.5C 494.126,212.885 495.126,208.385 497.5,204C 493.644,200.643 489.644,197.476 485.5,194.5C 490.467,193.671 495.467,193.171 500.5,193C 502.469,188.26 504.135,183.427 505.5,178.5 Z"/></g>
<g><path style="opacity:1" fill="#3e3d6f" d="M 2174.5,189.5 C 2175.5,189.47 2176.16,189.97 2176.5,191C 2184.67,212.68 2192.34,234.513 2199.5,256.5C 2183.16,256.667 2166.83,256.5 2150.5,256C 2159,234.005 2167,211.839 2174.5,189.5 Z"/></g>
<g><path style="opacity:1" fill="#fdfbfb" d="M 598.5,211.5 C 770.833,211.5 943.167,211.5 1115.5,211.5C 1115.5,230.5 1115.5,249.5 1115.5,268.5C 943.167,268.5 770.833,268.5 598.5,268.5C 598.5,249.5 598.5,230.5 598.5,211.5 Z"/></g>
<g><path style="opacity:1" fill="#f7f7f9" d="M 95.5,232.5 C 100.167,233.167 104.833,233.833 109.5,234.5C 105.876,236.951 102.376,239.617 99,242.5C 99.4229,246.95 100.59,251.284 102.5,255.5C 102.167,255.833 101.833,256.167 101.5,256.5C 97.2527,254.418 93.4194,251.751 90,248.5C 85.7451,251.377 81.5784,254.377 77.5,257.5C 78.1063,252.967 79.4396,248.301 81.5,243.5C 78.1294,240.129 74.4627,237.129 70.5,234.5C 75.1667,233.833 79.8333,233.167 84.5,232.5C 86.8126,228.07 88.6459,223.403 90,218.5C 91.7628,223.306 93.5961,227.972 95.5,232.5 Z"/></g>
<g><path style="opacity:1" fill="#f7f7f9" d="M 557.5,232.5 C 562.167,233.167 566.833,233.833 571.5,234.5C 567.537,237.129 563.871,240.129 560.5,243.5C 561.632,247.563 562.965,251.563 564.5,255.5C 564.167,255.833 563.833,256.167 563.5,256.5C 559.253,254.418 555.419,251.751 552,248.5C 547.902,252.281 543.402,255.115 538.5,257C 540.26,252.555 541.927,248.055 543.5,243.5C 540.129,240.129 536.463,237.129 532.5,234.5C 537.167,233.833 541.833,233.167 546.5,232.5C 548.796,228.131 550.629,223.464 552,218.5C 553.763,223.306 555.596,227.972 557.5,232.5 Z"/></g>
<g><path style="opacity:1" fill="#f7f6f9" d="M 187.5,232.5 C 192.5,233.167 197.5,233.833 202.5,234.5C 198.354,237.078 194.354,239.911 190.5,243C 192.758,247.891 194.091,252.725 194.5,257.5C 190.5,254.5 186.5,251.5 182.5,248.5C 178.473,251.694 174.306,254.694 170,257.5C 170.621,252.783 171.788,248.116 173.5,243.5C 170.154,240.159 166.487,237.159 162.5,234.5C 167.5,233.833 172.5,233.167 177.5,232.5C 178.881,228.068 180.548,223.735 182.5,219.5C 184.368,223.774 186.035,228.107 187.5,232.5 Z"/></g>
<g><path style="opacity:1" fill="#f7f7f9" d="M 279.5,232.5 C 284.5,233.167 289.5,233.833 294.5,234.5C 290.513,237.159 286.846,240.159 283.5,243.5C 285.212,248.116 286.379,252.783 287,257.5C 282.821,254.743 278.821,251.743 275,248.5C 271.254,251.29 267.421,253.957 263.5,256.5C 263.167,256.167 262.833,255.833 262.5,255.5C 264.145,251.399 265.478,247.232 266.5,243C 262.933,239.92 259.267,237.087 255.5,234.5C 260.749,234.141 265.749,233.141 270.5,231.5C 271.493,226.687 272.993,222.02 275,217.5C 276.405,222.548 277.905,227.548 279.5,232.5 Z"/></g>
<g><path style="opacity:1" fill="#f4f3f6" d="M 347.5,234.5 C 352.167,233.833 356.833,233.167 361.5,232.5C 363.599,227.714 365.432,222.714 367,217.5C 369.195,222.255 370.695,227.255 371.5,232.5C 377.176,232.334 382.843,232.501 388.5,233C 383.761,236.031 379.428,239.531 375.5,243.5C 377.56,248.301 378.894,252.967 379.5,257.5C 375.5,254.5 371.5,251.5 367.5,248.5C 363.422,251.623 359.255,254.623 355,257.5C 356.29,252.576 357.29,247.576 358,242.5C 354.624,239.617 351.124,236.951 347.5,234.5 Z"/></g>
<g><path style="opacity:1" fill="#f7f7f9" d="M 464.5,232.5 C 469.5,233.167 474.5,233.833 479.5,234.5C 475.354,237.078 471.354,239.911 467.5,243C 469.632,247.723 471.132,252.556 472,257.5C 467.943,254.6 463.777,251.933 459.5,249.5C 455.703,251.569 452.036,253.902 448.5,256.5C 448.102,251.819 449.102,247.319 451.5,243C 447.765,240.147 444.098,237.313 440.5,234.5C 445.167,233.833 449.833,233.167 454.5,232.5C 455.912,227.851 457.578,223.185 459.5,218.5C 461.565,223.029 463.232,227.695 464.5,232.5 Z"/></g>
<g><path style="opacity:1" fill="#9d9db6" d="M 84.5,232.5 C 79.8333,233.167 75.1667,233.833 70.5,234.5C 69.9569,234.44 69.6236,234.107 69.5,233.5C 74.456,232.506 79.456,232.173 84.5,232.5 Z"/></g>
<g><path style="opacity:1" fill="#9b9ab4" d="M 95.5,232.5 C 100.844,232.334 106.177,232.501 111.5,233C 110.956,233.717 110.289,234.217 109.5,234.5C 104.833,233.833 100.167,233.167 95.5,232.5 Z"/></g>
<g><path style="opacity:1" fill="#9b9ab4" d="M 177.5,232.5 C 172.5,233.167 167.5,233.833 162.5,234.5C 161.957,234.44 161.624,234.107 161.5,233.5C 166.792,232.505 172.125,232.172 177.5,232.5 Z"/></g>
<g><path style="opacity:1" fill="#9b9ab4" d="M 187.5,232.5 C 192.875,232.172 198.208,232.505 203.5,233.5C 203.376,234.107 203.043,234.44 202.5,234.5C 197.5,233.833 192.5,233.167 187.5,232.5 Z"/></g>
<g><path style="opacity:1" fill="#9e9db7" d="M 270.5,231.5 C 265.749,233.141 260.749,234.141 255.5,234.5C 254.711,234.217 254.044,233.717 253.5,233C 259.248,232.788 264.915,232.288 270.5,231.5 Z"/></g>
<g><path style="opacity:1" fill="#9b9ab5" d="M 279.5,232.5 C 285.176,232.334 290.843,232.501 296.5,233C 295.956,233.717 295.289,234.217 294.5,234.5C 289.5,233.833 284.5,233.167 279.5,232.5 Z"/></g>
<g><path style="opacity:1" fill="#9d9db6" d="M 361.5,232.5 C 356.833,233.167 352.167,233.833 347.5,234.5C 346.957,234.44 346.624,234.107 346.5,233.5C 351.456,232.506 356.456,232.173 361.5,232.5 Z"/></g>
<g><path style="opacity:1" fill="#9d9db6" d="M 454.5,232.5 C 449.833,233.167 445.167,233.833 440.5,234.5C 439.711,234.217 439.044,233.717 438.5,233C 443.823,232.501 449.156,232.334 454.5,232.5 Z"/></g>
<g><path style="opacity:1" fill="#9897b3" d="M 464.5,232.5 C 470.176,232.334 475.843,232.501 481.5,233C 480.956,233.717 480.289,234.217 479.5,234.5C 474.5,233.833 469.5,233.167 464.5,232.5 Z"/></g>
<g><path style="opacity:1" fill="#9d9db6" d="M 546.5,232.5 C 541.833,233.167 537.167,233.833 532.5,234.5C 531.957,234.44 531.624,234.107 531.5,233.5C 536.456,232.506 541.456,232.173 546.5,232.5 Z"/></g>
<g><path style="opacity:1" fill="#9b9ab4" d="M 557.5,232.5 C 562.844,232.334 568.177,232.501 573.5,233C 572.956,233.717 572.289,234.217 571.5,234.5C 566.833,233.833 562.167,233.167 557.5,232.5 Z"/></g>
<g><path style="opacity:1" fill="#c0bfcf" d="M 1524.5,212.5 C 1525.5,225.656 1525.83,238.99 1525.5,252.5C 1497.5,252.5 1469.5,252.5 1441.5,252.5C 1468.99,251.502 1496.66,251.169 1524.5,251.5C 1524.5,238.5 1524.5,225.5 1524.5,212.5 Z"/></g>
<g><path style="opacity:1" fill="#c0bfcf" d="M 1862.5,212.5 C 1863.5,225.656 1863.83,238.99 1863.5,252.5C 1835.5,252.5 1807.5,252.5 1779.5,252.5C 1806.99,251.502 1834.66,251.169 1862.5,251.5C 1862.5,238.5 1862.5,225.5 1862.5,212.5 Z"/></g>
<g><path style="opacity:1" fill="#f7f7f9" d="M 301.5,273.5 C 306.5,272.833 311.5,272.167 316.5,271.5C 317.698,266.762 319.198,262.095 321,257.5C 322.838,262.35 324.672,267.183 326.5,272C 331.5,272.333 336.5,272.667 341.5,273C 337.4,275.467 333.566,278.301 330,281.5C 331,286.5 332,291.5 333,296.5C 329.155,293.579 325.155,290.913 321,288.5C 316.845,290.913 312.845,293.579 309,296.5C 309.216,291.668 310.383,287.001 312.5,282.5C 308.986,279.253 305.32,276.253 301.5,273.5 Z"/></g>
<g><path style="opacity:1" fill="#f7f6f9" d="M 141.5,271.5 C 146.5,272.167 151.5,272.833 156.5,273.5C 152.134,276.016 148.134,279.016 144.5,282.5C 146.56,287.301 147.894,291.967 148.5,296.5C 144.142,293.987 140.142,290.987 136.5,287.5C 132.473,290.694 128.306,293.694 124,296.5C 124.521,291.919 125.688,287.419 127.5,283C 124.293,279.292 120.626,276.126 116.5,273.5C 121.5,272.833 126.5,272.167 131.5,271.5C 132.309,266.906 133.809,262.573 136,258.5C 137.947,262.859 139.781,267.192 141.5,271.5 Z"/></g>
<g><path style="opacity:1" fill="#f7f7f9" d="M 510.5,271.5 C 515.5,272.167 520.5,272.833 525.5,273.5C 521.876,275.951 518.376,278.617 515,281.5C 515.521,286.081 516.688,290.581 518.5,295C 518.167,295.5 517.833,296 517.5,296.5C 513.794,293.624 509.961,290.957 506,288.5C 501.577,291.454 497.077,293.954 492.5,296C 494.162,291.683 495.829,287.35 497.5,283C 494.234,279.367 490.567,276.201 486.5,273.5C 491.749,273.141 496.749,272.141 501.5,270.5C 502.309,265.906 503.809,261.573 506,257.5C 507.607,262.154 509.107,266.82 510.5,271.5 Z"/></g>
<g><path style="opacity:1" fill="#f7f7f9" d="M 233.5,271.5 C 238.5,272.167 243.5,272.833 248.5,273.5C 244.876,275.951 241.376,278.617 238,281.5C 238.216,286.332 239.383,290.999 241.5,295.5C 241.167,295.833 240.833,296.167 240.5,296.5C 236.794,293.624 232.961,290.957 229,288.5C 224.933,290.45 221.1,292.783 217.5,295.5C 217.102,290.819 218.102,286.319 220.5,282C 216.343,279.336 212.343,276.503 208.5,273.5C 213.5,272.833 218.5,272.167 223.5,271.5C 225.534,267.072 227.2,262.406 228.5,257.5C 230.475,262.075 232.142,266.742 233.5,271.5 Z"/></g>
<g><path style="opacity:1" fill="#f7f6f9" d="M 418.5,271.5 C 423.5,272.167 428.5,272.833 433.5,273.5C 429.657,276.503 425.657,279.336 421.5,282C 423.432,287.12 424.932,292.287 426,297.5C 422.207,293.705 417.874,290.705 413,288.5C 409.039,290.957 405.206,293.624 401.5,296.5C 401.167,296 400.833,295.5 400.5,295C 403.106,290.854 404.272,286.354 404,281.5C 400.624,278.617 397.124,275.951 393.5,273.5C 398.5,272.833 403.5,272.167 408.5,271.5C 409.893,266.82 411.393,262.154 413,257.5C 415.126,262.043 416.959,266.71 418.5,271.5 Z"/></g>
<g><path style="opacity:1" fill="#b12233" d="M 598.5,268.5 C 770.833,268.5 943.167,268.5 1115.5,268.5C 1115.5,286.833 1115.5,305.167 1115.5,323.5C 943.167,323.5 770.833,323.5 598.5,323.5C 598.5,305.167 598.5,286.833 598.5,268.5 Z"/></g>
<g><path style="opacity:1" fill="#727196" d="M 131.5,271.5 C 126.5,272.167 121.5,272.833 116.5,273.5C 115.957,273.44 115.624,273.107 115.5,272.5C 120.792,271.505 126.125,271.172 131.5,271.5 Z"/></g>
<g><path style="opacity:1" fill="#6c6c92" d="M 141.5,271.5 C 146.875,271.172 152.208,271.505 157.5,272.5C 157.376,273.107 157.043,273.44 156.5,273.5C 151.5,272.833 146.5,272.167 141.5,271.5 Z"/></g>
<g><path style="opacity:1" fill="#6c6c92" d="M 223.5,271.5 C 218.5,272.167 213.5,272.833 208.5,273.5C 207.957,273.44 207.624,273.107 207.5,272.5C 212.792,271.505 218.125,271.172 223.5,271.5 Z"/></g>
<g><path style="opacity:1" fill="#727196" d="M 233.5,271.5 C 238.875,271.172 244.208,271.505 249.5,272.5C 249.376,273.107 249.043,273.44 248.5,273.5C 243.5,272.833 238.5,272.167 233.5,271.5 Z"/></g>
<g><path style="opacity:1" fill="#727095" d="M 316.5,271.5 C 311.5,272.167 306.5,272.833 301.5,273.5C 300.711,273.217 300.044,272.717 299.5,272C 305.157,271.501 310.824,271.334 316.5,271.5 Z"/></g>
<g><path style="opacity:1" fill="#6f6e94" d="M 408.5,271.5 C 403.5,272.167 398.5,272.833 393.5,273.5C 392.957,273.44 392.624,273.107 392.5,272.5C 397.792,271.505 403.125,271.172 408.5,271.5 Z"/></g>
<g><path style="opacity:1" fill="#6c6c92" d="M 418.5,271.5 C 423.875,271.172 429.208,271.505 434.5,272.5C 434.376,273.107 434.043,273.44 433.5,273.5C 428.5,272.833 423.5,272.167 418.5,271.5 Z"/></g>
<g><path style="opacity:1" fill="#747297" d="M 501.5,270.5 C 496.749,272.141 491.749,273.141 486.5,273.5C 485.711,273.217 485.044,272.717 484.5,272C 490.248,271.788 495.915,271.288 501.5,270.5 Z"/></g>
<g><path style="opacity:1" fill="#727196" d="M 510.5,271.5 C 515.875,271.172 521.208,271.505 526.5,272.5C 526.376,273.107 526.043,273.44 525.5,273.5C 520.5,272.833 515.5,272.167 510.5,271.5 Z"/></g>
<g><path style="opacity:1" fill="#f7f7f9" d="M 89.5,297.5 C 90.1174,297.611 90.6174,297.944 91,298.5C 92.3269,302.809 93.4935,307.142 94.5,311.5C 99.8437,311.334 105.177,311.501 110.5,312C 106.756,314.955 102.922,317.789 99,320.5C 99.5208,325.081 100.688,329.581 102.5,334C 102.167,334.5 101.833,335 101.5,335.5C 97.7941,332.624 93.9608,329.957 90,327.5C 86.2323,329.597 82.7323,332.097 79.5,335C 78.6683,335.688 78.0016,335.521 77.5,334.5C 78.8333,330.167 80.1667,325.833 81.5,321.5C 77.721,318.104 73.721,314.937 69.5,312C 74.5,311.667 79.5,311.333 84.5,311C 86.2685,306.527 87.9352,302.027 89.5,297.5 Z"/></g>
<g><path style="opacity:1" fill="#f6f6f8" d="M 274.5,296.5 C 276.739,301.216 278.405,306.216 279.5,311.5C 284.844,311.334 290.177,311.501 295.5,312C 291.756,314.955 287.922,317.789 284,320.5C 284.216,325.332 285.383,329.999 287.5,334.5C 287.167,334.833 286.833,335.167 286.5,335.5C 282.794,332.624 278.961,329.957 275,327.5C 271.569,329.261 268.403,331.428 265.5,334C 264.241,334.982 262.908,335.315 261.5,335C 263.26,330.555 264.927,326.055 266.5,321.5C 262.307,318.14 257.974,314.973 253.5,312C 259.157,311.501 264.824,311.334 270.5,311.5C 271.021,306.273 272.354,301.273 274.5,296.5 Z"/></g>
<g><path style="opacity:1" fill="#f7f7f9" d="M 366.5,297.5 C 368.958,301.673 370.958,306.173 372.5,311C 377.5,311.333 382.5,311.667 387.5,312C 383.62,315.388 379.62,318.554 375.5,321.5C 377.617,326.001 378.784,330.668 379,335.5C 374.99,332.818 370.99,330.152 367,327.5C 362.704,330.292 358.538,333.292 354.5,336.5C 355.202,331.837 356.536,327.003 358.5,322C 354.967,318.216 350.967,314.882 346.5,312C 351.864,311.829 357.198,311.329 362.5,310.5C 364.242,306.275 365.576,301.941 366.5,297.5 Z"/></g>
<g><path style="opacity:1" fill="#f7f7f9" d="M 551.5,296.5 C 554.14,301.085 555.806,306.085 556.5,311.5C 561.844,311.334 567.177,311.501 572.5,312C 568.756,314.955 564.922,317.789 561,320.5C 561.521,325.081 562.688,329.581 564.5,334C 564.167,334.5 563.833,335 563.5,335.5C 559.794,332.624 555.961,329.957 552,327.5C 548.039,329.957 544.206,332.624 540.5,335.5C 540.167,335.167 539.833,334.833 539.5,334.5C 541.617,329.999 542.784,325.332 543,320.5C 539.078,317.789 535.244,314.955 531.5,312C 536.5,311.667 541.5,311.333 546.5,311C 548.465,306.272 550.132,301.439 551.5,296.5 Z"/></g>
<g><path style="opacity:1" fill="#f6f6f8" d="M 182.5,297.5 C 184.335,301.656 186.001,305.989 187.5,310.5C 192.802,311.329 198.136,311.829 203.5,312C 199.026,314.973 194.693,318.14 190.5,321.5C 192.54,326.444 194.04,331.444 195,336.5C 191.098,333.132 186.931,330.132 182.5,327.5C 177.915,329.919 173.748,332.919 170,336.5C 171.584,331.311 172.584,325.978 173,320.5C 169.434,317.301 165.6,314.467 161.5,312C 166.823,311.501 172.156,311.334 177.5,311.5C 178.387,306.503 180.053,301.836 182.5,297.5 Z"/></g>
<g><path style="opacity:1" fill="#f6f6f8" d="M 459.5,296.5 C 461.133,301.057 462.799,305.724 464.5,310.5C 469.802,311.329 475.136,311.829 480.5,312C 476.4,314.467 472.566,317.301 469,320.5C 469.796,325.882 470.796,331.216 472,336.5C 468.098,333.132 463.931,330.132 459.5,327.5C 455.579,330.043 451.746,332.71 448,335.5C 447.917,330.406 449.083,325.573 451.5,321C 447.167,318 442.833,315 438.5,312C 443.864,311.829 449.198,311.329 454.5,310.5C 456.174,305.81 457.841,301.143 459.5,296.5 Z"/></g>
<g><path style="opacity:1" fill="#fdfbfb" d="M 598.5,323.5 C 770.833,323.5 943.167,323.5 1115.5,323.5C 1115.5,342.5 1115.5,361.5 1115.5,380.5C 943.167,380.5 770.833,380.5 598.5,380.5C 598.5,361.5 598.5,342.5 598.5,323.5 Z"/></g>
<g><path style="opacity:1" fill="#f7f7f9" d="M 135.5,335.5 C 137.771,340.129 139.771,344.962 141.5,350C 146.833,350.333 152.167,350.667 157.5,351C 152.862,353.975 148.529,357.309 144.5,361C 145.833,365 147.167,369 148.5,373C 148.167,373.5 147.833,374 147.5,374.5C 143.833,371.833 140.167,369.167 136.5,366.5C 131.992,369.253 127.659,372.253 123.5,375.5C 124.202,370.837 125.536,366.003 127.5,361C 123.598,357.692 119.598,354.359 115.5,351C 120.823,350.501 126.156,350.334 131.5,350.5C 133.126,345.58 134.459,340.58 135.5,335.5 Z"/></g>
<g><path style="opacity:1" fill="#f7f7f9" d="M 320.5,336.5 C 322.935,340.799 324.602,345.466 325.5,350.5C 331.176,350.334 336.843,350.501 342.5,351C 337.862,353.975 333.529,357.309 329.5,361C 331.464,366.003 332.798,370.837 333.5,375.5C 329.442,372.11 325.109,369.11 320.5,366.5C 316.833,369.167 313.167,371.833 309.5,374.5C 309.167,374 308.833,373.5 308.5,373C 309.976,369.215 311.309,365.382 312.5,361.5C 308.65,357.492 304.317,353.992 299.5,351C 304.833,350.667 310.167,350.333 315.5,350C 317.269,345.527 318.935,341.027 320.5,336.5 Z"/></g>
<g><path style="opacity:1" fill="#f7f7f9" d="M 505.5,335.5 C 507.739,340.216 509.405,345.216 510.5,350.5C 515.844,350.334 521.177,350.501 526.5,351C 522.756,353.955 518.922,356.789 515,359.5C 515.216,364.332 516.383,368.999 518.5,373.5C 518.167,373.833 517.833,374.167 517.5,374.5C 513.5,371.833 509.5,369.167 505.5,366.5C 501.833,369.167 498.167,371.833 494.5,374.5C 494.193,369.705 495.193,365.038 497.5,360.5C 493.307,357.14 488.974,353.973 484.5,351C 489.833,350.667 495.167,350.333 500.5,350C 502.863,345.41 504.53,340.577 505.5,335.5 Z"/></g>
<g><path style="opacity:1" fill="#f6f6f8" d="M 227.5,336.5 C 228.497,336.47 229.164,336.97 229.5,338C 230.735,341.871 232.068,345.704 233.5,349.5C 238.802,350.329 244.136,350.829 249.5,351C 245.756,353.955 241.922,356.789 238,359.5C 238.801,364.893 239.801,370.226 241,375.5C 237.098,372.132 232.931,369.132 228.5,366.5C 224.422,369.623 220.255,372.623 216,375.5C 217.879,370.433 218.879,365.1 219,359.5C 215.078,356.789 211.244,353.955 207.5,351C 212.864,350.829 218.198,350.329 223.5,349.5C 225.242,345.275 226.576,340.941 227.5,336.5 Z"/></g>
<g><path style="opacity:1" fill="#f6f6f8" d="M 412.5,335.5 C 413.586,335.62 414.253,336.287 414.5,337.5C 415.742,341.725 417.075,345.891 418.5,350C 423.833,350.333 429.167,350.667 434.5,351C 430.026,353.973 425.693,357.14 421.5,360.5C 423.54,365.444 425.04,370.444 426,375.5C 421.745,372.623 417.578,369.623 413.5,366.5C 409.069,369.132 404.902,372.132 401,375.5C 402.204,370.216 403.204,364.882 404,359.5C 400.078,356.789 396.244,353.955 392.5,351C 397.833,350.667 403.167,350.333 408.5,350C 409.93,345.209 411.263,340.376 412.5,335.5 Z"/></g>
<g><path style="opacity:1" fill="#f4f4f7" d="M 89.5,375.5 C 91.9351,379.799 93.6018,384.466 94.5,389.5C 99.8437,389.334 105.177,389.501 110.5,390C 106.48,393.357 102.48,396.691 98.5,400C 99.9361,404.141 101.269,408.308 102.5,412.5C 101.21,413.408 99.8767,413.241 98.5,412C 95.6667,409.833 92.8333,407.667 90,405.5C 85.65,408.906 81.15,411.739 76.5,414C 78.26,409.555 79.9267,405.055 81.5,400.5C 77.817,396.82 73.817,393.486 69.5,390.5C 74.7921,389.505 80.1254,389.172 85.5,389.5C 86.2286,384.649 87.5619,379.982 89.5,375.5 Z"/></g>
<g><path style="opacity:1" fill="#f4f4f7" d="M 551.5,375.5 C 553.935,379.799 555.602,384.466 556.5,389.5C 561.844,389.334 567.177,389.501 572.5,390C 568.48,393.357 564.48,396.691 560.5,400C 561.833,404 563.167,408 564.5,412C 564.167,412.5 563.833,413 563.5,413.5C 559.579,410.957 555.746,408.29 552,405.5C 547.65,408.906 543.15,411.739 538.5,414C 540.359,409.426 542.025,404.759 543.5,400C 539.663,396.668 535.663,393.501 531.5,390.5C 536.833,389.833 542.167,389.167 547.5,388.5C 548.438,384.022 549.771,379.689 551.5,375.5 Z"/></g>
<g><path style="opacity:1" fill="#f5f4f7" d="M 181.5,376.5 C 182.497,376.47 183.164,376.97 183.5,378C 184.642,381.76 185.975,385.427 187.5,389C 192.833,389.333 198.167,389.667 203.5,390C 199.167,393.167 194.833,396.333 190.5,399.5C 192.073,404.055 193.74,408.555 195.5,413C 194.5,413.667 193.5,413.667 192.5,413C 189.308,410.308 185.975,407.808 182.5,405.5C 178.422,408.623 174.255,411.623 170,414.5C 171.204,409.216 172.204,403.882 173,398.5C 168.885,396.052 165.052,393.219 161.5,390C 166.833,389.667 172.167,389.333 177.5,389C 179.341,384.976 180.675,380.81 181.5,376.5 Z"/></g>
<g><path style="opacity:1" fill="#f4f4f7" d="M 274.5,374.5 C 276.534,378.927 278.2,383.594 279.5,388.5C 284.802,389.329 290.136,389.829 295.5,390C 291.231,393.284 287.231,396.784 283.5,400.5C 284.634,404.568 285.967,408.568 287.5,412.5C 287.167,412.833 286.833,413.167 286.5,413.5C 282.253,411.418 278.419,408.751 275,405.5C 271.029,407.972 267.195,410.638 263.5,413.5C 263.102,408.819 264.102,404.319 266.5,400C 262.644,396.643 258.644,393.476 254.5,390.5C 259.467,389.671 264.467,389.171 269.5,389C 271.596,384.309 273.263,379.475 274.5,374.5 Z"/></g>
<g><path style="opacity:1" fill="#f4f4f7" d="M 366.5,374.5 C 368.771,379.129 370.771,383.962 372.5,389C 377.833,389.333 383.167,389.667 388.5,390C 383.955,393.1 379.622,396.434 375.5,400C 376.975,404.759 378.641,409.426 380.5,414C 379.833,414.667 379.167,414.667 378.5,414C 374.948,410.781 371.115,407.948 367,405.5C 362.821,408.257 358.821,411.257 355,414.5C 356.108,409.802 357.275,404.969 358.5,400C 354.532,396.675 350.532,393.342 346.5,390C 351.823,389.501 357.156,389.334 362.5,389.5C 363.833,384.5 365.167,379.5 366.5,374.5 Z"/></g>
<g><path style="opacity:1" fill="#f4f4f7" d="M 458.5,375.5 C 459.497,375.47 460.164,375.97 460.5,377C 461.735,380.871 463.068,384.704 464.5,388.5C 469.802,389.329 475.136,389.829 480.5,390C 476.948,393.219 473.115,396.052 469,398.5C 468.979,403.582 470.145,408.416 472.5,413C 471.5,413.667 470.5,413.667 469.5,413C 466.308,410.308 462.975,407.808 459.5,405.5C 455.833,408.167 452.167,410.833 448.5,413.5C 448.167,412.833 447.833,412.167 447.5,411.5C 448.691,407.618 450.024,403.785 451.5,400C 447.378,396.434 443.045,393.1 438.5,390C 443.864,389.829 449.198,389.329 454.5,388.5C 456.242,384.275 457.576,379.941 458.5,375.5 Z"/></g>
<g><path style="opacity:1" fill="#b12233" d="M 598.5,380.5 C 770.833,380.5 943.167,380.5 1115.5,380.5C 1115.5,398.833 1115.5,417.167 1115.5,435.5C 943.167,435.5 770.833,435.5 598.5,435.5C 598.5,417.167 598.5,398.833 598.5,380.5 Z"/></g>
<g><path style="opacity:0.996" fill="#ae2232" d="M 1128.5,415.5 C 1605.83,415.5 2083.17,415.5 2560.5,415.5C 2560.83,535.404 2560.5,655.237 2559.5,775C 2082.5,775.5 1605.5,775.667 1128.5,775.5C 1128.5,655.5 1128.5,535.5 1128.5,415.5 Z"/></g>
<g><path style="opacity:1" fill="#fdfbfb" d="M 43.5,435.5 C 228.5,435.5 413.5,435.5 598.5,435.5C 770.833,435.5 943.167,435.5 1115.5,435.5C 1115.5,454.5 1115.5,473.5 1115.5,492.5C 758.167,492.5 400.833,492.5 43.5,492.5C 43.5,473.5 43.5,454.5 43.5,435.5 Z"/></g>
<g><path style="opacity:1" fill="#fcfbfb" d="M 1371.5,487.5 C 1399.54,485.281 1425.87,490.781 1450.5,504C 1481.87,524.723 1497.2,554.056 1496.5,592C 1496.65,639.749 1474.98,673.082 1431.5,692C 1409.38,699.585 1386.72,701.585 1363.5,698C 1313.86,686.696 1285.36,655.863 1278,605.5C 1274.16,569.667 1285,539.167 1310.5,514C 1328.38,499.432 1348.71,490.598 1371.5,487.5 Z"/></g>
<g><path style="opacity:1" fill="#b22233" d="M 43.5,492.5 C 400.833,492.5 758.167,492.5 1115.5,492.5C 1115.5,510.833 1115.5,529.167 1115.5,547.5C 758.167,547.5 400.833,547.5 43.5,547.5C 43.5,529.167 43.5,510.833 43.5,492.5 Z"/></g>
<g><path style="opacity:1" fill="#e0aeb3" d="M 2003.5,493.5 C 1987.83,493.5 1972.17,493.5 1956.5,493.5C 1956.5,507.5 1956.5,521.5 1956.5,535.5C 1955.5,521.343 1955.17,507.01 1955.5,492.5C 1971.68,492.17 1987.68,492.504 2003.5,493.5 Z"/></g>
<g><path style="opacity:1" fill="#fcfbfb" d="M 1508.5,492.5 C 1526.17,492.5 1543.83,492.5 1561.5,492.5C 1571.93,537.167 1582.43,581.834 1593,626.5C 1605.41,581.964 1617.24,537.297 1628.5,492.5C 1645.83,492.5 1663.17,492.5 1680.5,492.5C 1692.33,537.152 1704.16,581.819 1716,626.5C 1727.35,581.945 1738.19,537.278 1748.5,492.5C 1765.5,492.5 1782.5,492.5 1799.5,492.5C 1780.98,559.572 1761.98,626.572 1742.5,693.5C 1726.18,694.499 1709.85,694.833 1693.5,694.5C 1680.96,649 1667.79,603.667 1654,558.5C 1640.52,603.751 1627.35,649.084 1614.5,694.5C 1598.15,694.833 1581.82,694.499 1565.5,693.5C 1546.03,626.621 1527.03,559.621 1508.5,492.5 Z"/></g>
<g><path style="opacity:1" fill="#fcfbfb" d="M 1955.5,622.5 C 1955.56,623.043 1955.89,623.376 1956.5,623.5C 1957.82,613.341 1957.82,603.341 1956.5,593.5C 1956.5,574.167 1956.5,554.833 1956.5,535.5C 1956.5,521.5 1956.5,507.5 1956.5,493.5C 1972.17,493.5 1987.83,493.5 2003.5,493.5C 2003.5,560.5 2003.5,627.5 2003.5,694.5C 1984.83,694.667 1966.16,694.5 1947.5,694C 1920.67,650.5 1893.83,607 1867,563.5C 1866.88,607.166 1867.05,650.832 1867.5,694.5C 1851.5,694.5 1835.5,694.5 1819.5,694.5C 1819.17,627.262 1819.5,560.096 1820.5,493C 1839.18,492.167 1857.84,492.334 1876.5,493.5C 1902.59,536.695 1928.93,579.695 1955.5,622.5 Z"/></g>
<g><path style="opacity:1" fill="#fcfbfb" d="M 2045.5,492.5 C 2090.5,492.5 2135.5,492.5 2180.5,492.5C 2180.5,506.5 2180.5,520.5 2180.5,534.5C 2151.17,534.5 2121.83,534.5 2092.5,534.5C 2092.5,546.833 2092.5,559.167 2092.5,571.5C 2120.17,571.5 2147.83,571.5 2175.5,571.5C 2175.5,584.833 2175.5,598.167 2175.5,611.5C 2147.83,611.5 2120.17,611.5 2092.5,611.5C 2092.5,625.167 2092.5,638.833 2092.5,652.5C 2123.5,652.5 2154.5,652.5 2185.5,652.5C 2185.5,666.5 2185.5,680.5 2185.5,694.5C 2138.5,694.5 2091.5,694.5 2044.5,694.5C 2044.17,627.096 2044.5,559.762 2045.5,492.5 Z"/></g>
<g><path style="opacity:1" fill="#fcfbfb" d="M 2217.5,492.5 C 2245.5,492.333 2273.5,492.5 2301.5,493C 2378.28,499.119 2412.11,540.285 2403,616.5C 2393.58,654.801 2369.75,678.968 2331.5,689C 2322.28,691.314 2312.95,692.98 2303.5,694C 2274.5,694.5 2245.5,694.667 2216.5,694.5C 2216.17,627.096 2216.5,559.762 2217.5,492.5 Z"/></g>
<g><path style="opacity:1" fill="#ae2332" d="M 1379.5,531.5 C 1423.7,532.537 1445.2,555.204 1444,599.5C 1438.07,639.558 1414.9,657.725 1374.5,654C 1348.78,645.932 1334.28,628.432 1331,601.5C 1327.7,564.379 1343.86,541.046 1379.5,531.5 Z"/></g>
<g><path style="opacity:1" fill="#d1848d" d="M 2293.5,535.5 C 2284.17,535.5 2274.83,535.5 2265.5,535.5C 2265.5,574.167 2265.5,612.833 2265.5,651.5C 2264.5,612.67 2264.17,573.67 2264.5,534.5C 2274.35,534.173 2284.01,534.506 2293.5,535.5 Z"/></g>
<g><path style="opacity:1" fill="#ae2232" d="M 2293.5,535.5 C 2312.32,535.269 2328.48,541.602 2342,554.5C 2347,561.507 2350.67,569.174 2353,577.5C 2353.88,588.55 2353.55,599.55 2352,610.5C 2346.43,631.074 2333.26,643.907 2312.5,649C 2296.93,651.269 2281.27,652.102 2265.5,651.5C 2265.5,612.833 2265.5,574.167 2265.5,535.5C 2274.83,535.5 2284.17,535.5 2293.5,535.5 Z"/></g>
<g><path style="opacity:1" fill="#fdfbfb" d="M 43.5,547.5 C 400.833,547.5 758.167,547.5 1115.5,547.5C 1115.5,566.5 1115.5,585.5 1115.5,604.5C 758.167,604.5 400.833,604.5 43.5,604.5C 43.5,585.5 43.5,566.5 43.5,547.5 Z"/></g>
<g><path style="opacity:1" fill="#b22233" d="M 43.5,604.5 C 400.833,604.5 758.167,604.5 1115.5,604.5C 1115.5,622.833 1115.5,641.167 1115.5,659.5C 758.167,659.5 400.833,659.5 43.5,659.5C 43.5,641.167 43.5,622.833 43.5,604.5 Z"/></g>
<g><path style="opacity:1" fill="#edd2d5" d="M 1956.5,593.5 C 1957.82,603.341 1957.82,613.341 1956.5,623.5C 1955.89,623.376 1955.56,623.043 1955.5,622.5C 1956.49,613.014 1956.83,603.348 1956.5,593.5 Z"/></g>
<g><path style="opacity:1" fill="#fdfbfb" d="M 43.5,659.5 C 400.833,659.5 758.167,659.5 1115.5,659.5C 1115.5,678.5 1115.5,697.5 1115.5,716.5C 758.167,716.5 400.833,716.5 43.5,716.5C 43.5,697.5 43.5,678.5 43.5,659.5 Z"/></g>
<g><path style="opacity:0.991" fill="#b12233" d="M 43.5,716.5 C 400.833,716.5 758.167,716.5 1115.5,716.5C 1115.5,735.167 1115.5,753.833 1115.5,772.5C 758.167,772.5 400.833,772.5 43.5,772.5C 43.5,753.833 43.5,735.167 43.5,716.5 Z"/></g>
</svg>
